<svg width="16" height="16" viewBox="0 0 16 16" fill="none" xmlns="http://www.w3.org/2000/svg">
<g clip-path="url(#clip0)">
<path d="M13.4267 6.86001L4.00002 1.21335C3.7984 1.09693 3.56982 1.03533 3.337 1.03467C3.10419 1.03402 2.87526 1.09434 2.673 1.20963C2.47073 1.32492 2.30218 1.49116 2.18411 1.69182C2.06605 1.89247 2.00257 2.12055 2.00001 2.35335L2.00001 13.6467C2.00257 13.8795 2.06605 14.1076 2.18411 14.3082C2.30218 14.5089 2.47073 14.6751 2.673 14.7904C2.87526 14.9057 3.10419 14.966 3.337 14.9654C3.56982 14.9647 3.7984 14.9031 4.00002 14.7867L13.4267 9.14001C13.6226 9.02117 13.7846 8.85383 13.897 8.65414C14.0095 8.45446 14.0685 8.22917 14.0685 8.00001C14.0685 7.77086 14.0095 7.54557 13.897 7.34588C13.7846 7.1462 13.6226 6.97886 13.4267 6.86001V6.86001Z" fill="#337788" stroke="#337788" stroke-width="2" stroke-linecap="round" stroke-linejoin="round"/>
</g>
<defs>
<clipPath id="clip0">
<rect width="16" height="16" fill="white" transform="translate(16) rotate(90)"/>
</clipPath>
</defs>
</svg>
